<?xml version="1.0" standalone="no"?>
<!DOCTYPE svg PUBLIC "-//W3C//DTD SVG 20010904//EN"
 "http://www.w3.org/TR/2001/REC-SVG-20010904/DTD/svg10.dtd">
<svg version="1.0" xmlns="http://www.w3.org/2000/svg"
 width="1343.000000pt" height="1343.000000pt" viewBox="0 0 1343.000000 1343.000000"
 preserveAspectRatio="xMidYMid meet">
<metadata>
Created by potrace 1.11, written by Peter Selinger 2001-2013
</metadata>
<g transform="translate(0.000000,1343.000000) scale(0.100000,-0.100000)"
fill="#000000" stroke="none">
<path d="M4518 13032 c-38 -59 -58 -102 -63 -132 -3 -25 -12 -76 -20 -115 -11
-58 -35 -195 -51 -290 -2 -11 -5 -31 -8 -45 -6 -28 -52 -285 -61 -340 -15 -90
-66 -377 -69 -392 -2 -10 31 15 74 55 185 171 373 228 566 169 135 -41 164
-93 158 -282 -3 -123 -8 -151 -28 -162 -8 -4 -41 -28 -73 -53 -223 -172 -298
-214 -502 -282 -158 -52 -181 -64 -181 -98 0 -14 3 -25 8 -25 13 0 103 -93
134 -138 17 -24 52 -103 78 -176 26 -73 61 -159 78 -192 25 -51 98 -267 116
-345 4 -17 -20 -99 -74 -260 -44 -129 -82 -241 -85 -249 -6 -21 -131 -371
-215 -600 -40 -107 -76 -207 -81 -221 -9 -24 -15 -27 -67 -28 -117 -3 -219
-11 -272 -21 -30 -6 -66 -13 -79 -16 -35 -7 -93 -39 -116 -64 -29 -32 -24 -97
13 -172 51 -103 131 -172 256 -218 31 -12 56 -24 56 -27 0 -5 -9 -29 -120
-313 -169 -430 -498 -1249 -545 -1355 -8 -16 -30 -70 -50 -120 -20 -49 -44
-106 -52 -125 -24 -56 -28 -66 -103 -244 -39 -94 -74 -175 -77 -180 -4 -8 -2
-8 5 -1 16 15 286 559 377 760 10 22 33 72 50 110 18 39 76 171 129 295 53
124 101 234 105 245 49 111 214 530 312 793 46 125 57 147 91 173 30 24 38 38
38 63 0 18 -5 37 -11 43 -13 13 55 229 74 235 21 7 429 -4 672 -18 196 -11
218 -13 225 -21 4 -4 37 -107 74 -228 311 -1023 556 -1702 744 -2065 214 -414
359 -474 627 -259 97 77 483 462 579 577 38 45 71 81 72 79 4 -3 12 -141 19
-332 4 -77 8 -176 10 -220 3 -44 7 -145 10 -225 3 -80 8 -176 10 -215 3 -38 7
-140 10 -225 4 -85 8 -175 10 -198 3 -42 1 -46 -59 -106 -70 -71 -187 -161
-261 -202 -69 -37 -92 -54 -76 -54 46 0 215 -114 291 -197 121 -131 137 -168
145 -339 3 -76 8 -175 10 -219 3 -44 7 -138 10 -210 3 -71 7 -173 10 -225 9
-201 18 -417 30 -685 3 -71 1 -143 -3 -160 l-9 -30 -17 40 c-10 22 -32 76 -51
120 -41 98 -89 205 -208 455 -27 58 -66 141 -87 185 -158 336 -205 435 -255
540 -32 66 -78 165 -104 220 -121 255 -223 463 -432 880 -253 505 -323 640
-462 895 -146 270 -295 453 -415 512 -101 50 -150 46 -327 -27 -77 -31 -153
-63 -170 -70 -41 -19 -334 -127 -420 -156 -78 -25 -106 -42 -53 -30 82 19 181
-6 243 -61 43 -38 118 -153 159 -243 34 -75 148 -300 158 -312 6 -7 7 -13 4
-13 -4 0 1 -12 12 -27 10 -16 47 -84 81 -153 35 -69 67 -129 71 -135 4 -5 40
-73 80 -150 41 -77 86 -162 102 -188 15 -26 28 -49 28 -51 0 -2 43 -80 95
-172 52 -93 143 -277 201 -409 118 -266 250 -554 341 -745 197 -412 255 -539
389 -855 47 -110 89 -209 95 -220 24 -53 155 -391 214 -555 123 -339 176 -610
146 -749 -22 -102 -83 -150 -203 -159 -38 -3 -68 -9 -68 -14 0 -13 80 -47 116
-49 32 -2 88 20 120 48 29 26 123 163 187 275 78 136 92 156 193 260 49 52
134 142 188 201 54 59 101 106 103 104 3 -4 8 -90 18 -312 8 -202 16 -374 20
-450 3 -44 7 -136 10 -205 13 -327 17 -399 20 -450 2 -30 6 -136 10 -235 4
-99 8 -198 11 -219 7 -71 11 -48 8 46 -1 51 -5 269 -8 483 -4 215 -9 545 -12
735 -6 339 -7 677 -4 855 1 50 -1 104 -4 120 -4 17 -9 167 -12 335 l-5 306 41
114 c23 63 50 138 61 165 10 28 75 201 143 385 187 505 400 1045 490 1245 13
28 47 104 76 170 149 333 295 581 370 628 53 34 203 24 265 -17 15 -10 39 -38
56 -64 37 -59 38 -108 3 -164 -41 -65 -33 -175 9 -139 8 6 49 85 91 175 147
315 190 397 302 566 121 184 293 367 471 501 l68 52 -71 -5 c-108 -8 -175 -46
-304 -176 -58 -59 -120 -125 -138 -147 l-32 -40 25 60 c46 107 121 220 203
306 24 26 40 49 34 53 -24 15 -188 32 -278 30 -166 -5 -367 -68 -504 -159 -73
-49 -184 -156 -228 -220 -15 -22 -29 -42 -32 -45 -9 -9 -39 -62 -74 -130 -40
-77 -96 -226 -246 -655 -61 -176 -115 -329 -120 -340 -5 -11 -15 -40 -23 -65
-8 -25 -50 -144 -92 -265 -42 -121 -78 -227 -81 -235 -2 -8 -71 -215 -154
-460 -83 -245 -190 -565 -238 -711 -48 -147 -89 -265 -91 -263 -3 3 -5 73 -15
877 l-6 389 26 51 c62 123 171 252 287 340 37 29 67 54 67 57 0 4 -17 14 -37
23 -110 49 -250 189 -316 316 l-35 66 -2 235 c-7 863 1 1437 20 1483 6 12 28
51 51 87 141 223 233 480 232 645 -1 86 -4 104 -22 126 l-19 24 -46 -22 c-47
-23 -95 -79 -123 -143 -9 -21 -16 -71 -18 -125 -2 -73 -8 -136 -20 -195 -2 -8
-15 -52 -42 -136 l-26 -82 -21 31 c-12 17 -35 39 -51 48 -30 18 -47 22 -145
34 -30 4 -62 9 -70 10 -8 1 -46 6 -85 9 -38 4 -83 9 -100 12 -18 3 -7 -5 28
-20 78 -32 117 -60 150 -107 42 -59 57 -113 63 -233 2 -61 7 -123 9 -137 8
-51 -105 -127 -170 -115 -136 26 -323 373 -523 971 -126 376 -245 788 -230
793 19 8 127 -44 209 -100 98 -68 162 -91 210 -78 45 13 65 34 105 110 61 117
143 200 248 253 l50 25 -80 -3 c-254 -10 -508 -17 -644 -19 l-155 -1 -43 170
c-44 174 -59 238 -112 475 -50 219 -106 460 -154 660 -142 584 -275 915 -470
1169 -48 63 -177 195 -213 218 -13 9 -23 20 -23 26 0 6 37 103 81 216 45 113
82 211 83 216 2 6 11 46 21 90 26 109 25 385 0 458 -3 7 -7 23 -9 37 -45 240
-172 422 -363 519 -58 29 -196 61 -265 61 l-56 0 -15 -42 c-28 -79 -168 -432
-173 -438 -6 -5 3 118 11 158 2 12 6 54 9 94 4 40 8 83 11 96 6 35 17 172 13
172 -1 0 -28 -40 -60 -88z m293 -3297 c45 -154 91 -309 101 -345 40 -137 46
-157 72 -240 15 -47 29 -94 31 -105 3 -11 20 -69 39 -129 35 -109 37 -129 13
-121 -7 2 -68 7 -137 10 -69 3 -152 8 -185 10 -47 2 -403 17 -461 18 -15 0
-48 -101 279 847 46 135 92 262 100 283 9 20 16 38 15 40 0 1 5 21 13 45 l12
43 13 -38 c6 -21 49 -164 95 -318z m-661 -1052 c0 -3 -15 -46 -32 -94 -33 -89
-33 -89 -68 -89 -41 0 -53 7 -69 37 -16 32 -14 78 7 102 21 25 162 64 162 44z"/>
<path d="M7526 172 c-2 -4 -1 -14 4 -22 7 -11 9 -9 7 8 -1 24 -3 26 -11 14z"/>
<path d="M7532 110 c0 -14 2 -19 5 -12 2 6 2 18 0 25 -3 6 -5 1 -5 -13z"/>
</g>
</svg>
